<svg width="126" height="16" viewBox="0 0 126 16" fill="none" xmlns="http://www.w3.org/2000/svg">
<path d="M5.44531 15.4922C4.91406 15.4922 4.38281 15.3984 3.85156 15.2109C3.33594 15.0234 2.83594 14.75 2.35156 14.3906C1.86719 14.0156 1.44531 13.5234 1.08594 12.9141C0.726562 12.3047 0.53125 11.5781 0.5 10.7344V2.27344C0.5 1.83594 0.65625 1.47656 0.96875 1.19531C1.29688 0.898438 1.67969 0.75 2.11719 0.75C3.05469 0.828125 3.5625 1.33594 3.64062 2.27344V10.5469C3.65625 10.9219 3.73438 11.2422 3.875 11.5078C4.01562 11.7578 4.17188 11.9609 4.34375 12.1172C4.51562 12.2578 4.6875 12.3672 4.85938 12.4453C5.04688 12.5078 5.23438 12.5391 5.42188 12.5391C5.60938 12.5391 5.79688 12.5078 5.98438 12.4453C6.17188 12.3672 6.35156 12.2578 6.52344 12.1172C6.69531 11.9609 6.85156 11.7578 6.99219 11.5078C7.13281 11.2422 7.20312 10.9219 7.20312 10.5469V2.27344C7.20312 1.83594 7.35938 1.47656 7.67188 1.19531C8 0.898438 8.38281 0.75 8.82031 0.75C9.75781 0.828125 10.2734 1.33594 10.3672 2.27344V10.5469C10.3828 10.9219 10.4609 11.2344 10.6016 11.4844C10.7422 11.75 10.8984 11.9609 11.0703 12.1172C11.2422 12.2578 11.4141 12.3672 11.5859 12.4453C11.7734 12.5078 11.9609 12.5391 12.1484 12.5391C12.3359 12.5391 12.5234 12.5078 12.7109 12.4453C12.8984 12.3672 13.0781 12.2578 13.25 12.1172C13.4219 11.9609 13.5781 11.7578 13.7188 11.5078C13.8594 11.2422 13.9297 10.9219 13.9297 10.5469V2.27344C13.9297 1.83594 14.0859 1.47656 14.3984 1.19531C14.7266 0.898438 15.1094 0.75 15.5469 0.75C16.4844 0.828125 17 1.33594 17.0938 2.27344V10.7344C17.0938 11.5781 16.9062 12.3047 16.5312 12.9141C16.1719 13.5234 15.75 14.0156 15.2656 14.3906C14.7969 14.75 14.2969 15.0234 13.7656 15.2109C13.25 15.3984 12.7188 15.4922 12.1719 15.4922C11.6406 15.4922 11.1094 15.3984 10.5781 15.2109C10.0625 15.0234 9.5625 14.7422 9.07812 14.3672C8.98438 14.3047 8.89844 14.2344 8.82031 14.1562C8.72656 14.2344 8.64062 14.3047 8.5625 14.3672C8.07812 14.7422 7.57031 15.0234 7.03906 15.2109C6.52344 15.3984 5.99219 15.4922 5.44531 15.4922ZM33.2656 13.7109V8.0625C33.2656 7.67188 33.0625 7.46875 32.6562 7.45312H24.4531C24.1562 7.46875 23.8984 7.60156 23.6797 7.85156C23.4609 8.08594 23.2969 8.36719 23.1875 8.69531C23.0938 9.00781 23.0469 9.32812 23.0469 9.65625C23.0469 9.96875 23.0938 10.2891 23.1875 10.6172C23.2969 10.9297 23.4609 11.2109 23.6797 11.4609C23.8984 11.6953 24.1562 11.8125 24.4531 11.8125H30.4531C30.8906 11.8125 31.2578 11.9688 31.5547 12.2812C31.8672 12.5781 32.0234 12.9453 32.0234 13.3828C32.0234 13.8203 31.8672 14.1875 31.5547 14.4844C31.2578 14.7969 30.8906 14.9531 30.4531 14.9531H24.5469C23.4531 14.9375 22.5469 14.6328 21.8281 14.0391C21.125 13.4297 20.6172 12.75 20.3047 12C20.0078 11.2344 19.8594 10.4453 19.8594 9.63281C19.8594 8.85156 20.0156 8.08594 20.3281 7.33594C20.6406 6.57031 21.1484 5.89062 21.8516 5.29688C22.5547 4.6875 23.5938 4.35938 24.9688 4.3125H34.8125C35.25 4.3125 35.625 4.46094 35.9375 4.75781C36.25 5.03906 36.4141 5.39844 36.4297 5.83594V13.7109C36.4297 14.1484 36.2656 14.5156 35.9375 14.8125C35.625 15.0938 35.25 15.2344 34.8125 15.2344C33.875 15.1562 33.3594 14.6484 33.2656 13.7109ZM39.9453 7.26562C40.2422 6.51562 40.7422 5.84375 41.4453 5.25C42.1641 4.64062 43.0703 4.32812 44.1641 4.3125H52.9766C53.4141 4.3125 53.7812 4.46875 54.0781 4.78125C54.3906 5.07812 54.5469 5.44531 54.5469 5.88281C54.5469 6.32031 54.3906 6.69531 54.0781 7.00781C53.7812 7.30469 53.4141 7.45312 52.9766 7.45312H44.0703C43.7734 7.45312 43.5156 7.57812 43.2969 7.82812C43.0781 8.0625 42.9062 8.34375 42.7812 8.67188C42.6719 9 42.6172 9.3125 42.6172 9.60938V13.7109C42.5234 14.6484 42.0078 15.1562 41.0703 15.2344C40.6328 15.2344 40.25 15.0938 39.9219 14.8125C39.6094 14.5156 39.4531 14.1484 39.4531 13.7109V9.63281H39.4766C39.4766 8.82031 39.6328 8.03125 39.9453 7.26562ZM61.6719 14.9531C60.2969 14.9062 59.2578 14.5859 58.5547 13.9922C57.8516 13.3828 57.3438 12.7031 57.0312 11.9531C56.7188 11.1875 56.5625 10.4141 56.5625 9.63281C56.5625 8.82031 56.7109 8.03906 57.0078 7.28906C57.3203 6.52344 57.8281 5.84375 58.5312 5.25C59.25 4.64062 60.1562 4.32812 61.25 4.3125H70.1562C70.5938 4.3125 70.9609 4.46094 71.2578 4.75781C71.5703 5.03906 71.7266 5.38281 71.7266 5.78906C71.7266 6.21094 71.5703 6.57031 71.2578 6.86719C70.9609 7.14844 70.5938 7.28906 70.1562 7.28906H61.3906C61.0469 7.28906 60.7422 7.40625 60.4766 7.64062C60.2266 7.875 60.0391 8.17969 59.9141 8.55469C59.8047 8.92969 59.75 9.29688 59.75 9.65625C59.75 10.0469 59.8047 10.4297 59.9141 10.8047C60.0391 11.1797 60.2266 11.4844 60.4766 11.7188C60.7422 11.9375 61.0469 12.0547 61.3906 12.0703H70.1562C70.5938 12.0703 70.9609 12.2109 71.2578 12.4922C71.5703 12.7734 71.7266 13.1094 71.7266 13.5C71.7266 13.9062 71.5703 14.25 71.2578 14.5312C70.9609 14.8125 70.5938 14.9531 70.1562 14.9531H61.6719ZM71.4453 9.58594C71.4453 9.88281 71.3125 10.1406 71.0469 10.3594C70.8125 10.5625 70.5156 10.6641 70.1562 10.6641H62.4922C62.1328 10.6641 61.8281 10.5625 61.5781 10.3594C61.3281 10.1406 61.2031 9.88281 61.2031 9.58594C61.2031 9.30469 61.3281 9.05469 61.5781 8.83594C61.8281 8.63281 62.1328 8.53125 62.4922 8.53125H70.1562C70.5156 8.53125 70.8203 8.64062 71.0703 8.85938C71.3203 9.0625 71.4453 9.30469 71.4453 9.58594ZM76.0391 0.75C76.4609 0.765625 76.8203 0.921875 77.1172 1.21875C77.4141 1.5 77.5703 1.85156 77.5859 2.27344V6.1875H85.2031V2.27344C85.2188 1.83594 85.3828 1.47656 85.6953 1.19531C86.0078 0.898438 86.3828 0.75 86.8203 0.75C87.2422 0.765625 87.6016 0.921875 87.8984 1.21875C88.1953 1.5 88.3516 1.85156 88.3672 2.27344V13.7578C88.2734 14.6953 87.7578 15.2031 86.8203 15.2812C86.3828 15.2812 86 15.1406 85.6719 14.8594C85.3594 14.5625 85.2031 14.1953 85.2031 13.7578V9.32812H77.5859V13.7578C77.4922 14.6953 76.9766 15.2031 76.0391 15.2812C75.6016 15.2812 75.2188 15.1406 74.8906 14.8594C74.5781 14.5625 74.4219 14.1953 74.4219 13.7578V2.27344C74.4375 1.83594 74.6016 1.47656 74.9141 1.19531C75.2266 0.898438 75.6016 0.75 76.0391 0.75ZM98.75 15.3516C97.9375 15.3516 97.1328 15.2578 96.3359 15.0703C95.5547 14.8828 94.8047 14.6094 94.0859 14.25C93.3672 13.875 92.7344 13.3828 92.1875 12.7734C91.6406 12.1641 91.3438 11.4375 91.2969 10.5938V9.60938V5.60156C91.2969 5.16406 91.4531 4.80469 91.7656 4.52344C92.0938 4.22656 92.4766 4.07812 92.9141 4.07812C93.8516 4.15625 94.3594 4.66406 94.4375 5.60156V6.63281V9.86719C94.4688 10.3516 94.6484 10.7578 94.9766 11.0859C95.3203 11.3984 95.6953 11.6484 96.1016 11.8359C96.5234 12.0234 96.9531 12.1641 97.3906 12.2578C97.8438 12.3516 98.2969 12.3984 98.75 12.3984C99.2031 12.3984 99.6484 12.3516 100.086 12.2578C100.539 12.1641 100.969 12.0234 101.375 11.8359C101.797 11.6484 102.172 11.3984 102.5 11.0859C102.844 10.7578 103.031 10.3516 103.062 9.86719V6.63281V5.60156C103.062 5.16406 103.219 4.80469 103.531 4.52344C103.859 4.22656 104.242 4.07812 104.68 4.07812C105.617 4.15625 106.133 4.66406 106.227 5.60156V9.60938V10.5938C106.18 11.4375 105.875 12.1641 105.312 12.7734C104.766 13.3828 104.133 13.875 103.414 14.25C102.695 14.6094 101.938 14.8828 101.141 15.0703C100.359 15.2578 99.5625 15.3516 98.75 15.3516ZM112.391 2.27344V11.2031C112.391 11.5938 112.594 11.7969 113 11.8125H121.203C121.5 11.7969 121.758 11.6719 121.977 11.4375C122.195 11.1875 122.352 10.9062 122.445 10.5938C122.555 10.2656 122.609 9.9375 122.609 9.60938C122.609 9.29688 122.555 8.98438 122.445 8.67188C122.352 8.34375 122.195 8.0625 121.977 7.82812C121.758 7.57812 121.5 7.45312 121.203 7.45312H115.203C114.766 7.45312 114.391 7.30469 114.078 7.00781C113.781 6.69531 113.633 6.32031 113.633 5.88281C113.633 5.44531 113.789 5.07812 114.102 4.78125C114.398 4.46875 114.766 4.3125 115.203 4.3125H121.109C122.203 4.32812 123.102 4.64062 123.805 5.25C124.523 5.84375 125.031 6.52344 125.328 7.28906C125.641 8.03906 125.797 8.82031 125.797 9.63281C125.797 10.4141 125.641 11.1875 125.328 11.9531C125.016 12.7031 124.508 13.3828 123.805 13.9922C123.102 14.5859 122.062 14.9062 120.688 14.9531H110.844C110.406 14.9531 110.031 14.8125 109.719 14.5312C109.406 14.2344 109.242 13.8672 109.227 13.4297V2.27344C109.227 1.83594 109.383 1.47656 109.695 1.19531C110.023 0.898438 110.406 0.75 110.844 0.75C111.781 0.828125 112.297 1.33594 112.391 2.27344Z" fill="#62AA62"/>
</svg>
